<?xml version="1.0" encoding="UTF-8" standalone="no"?>
<svg width="196px" height="32px" viewBox="0 0 196 32" version="1.1" xmlns="http://www.w3.org/2000/svg" xmlns:xlink="http://www.w3.org/1999/xlink" xmlns:sketch="http://www.bohemiancoding.com/sketch/ns">
    <!-- Generator: Sketch 3.3.2 (12043) - http://www.bohemiancoding.com/sketch -->
    <title>boffinhouse logo</title>
    <desc>Created with Sketch.</desc>
    <defs></defs>
    <g id="startpage" stroke="none" stroke-width="1" fill="none" fill-rule="evenodd" sketch:type="MSPage">
        <g id="Desktop-HD" sketch:type="MSArtboardGroup" transform="translate(-44.000000, -1761.000000)">
            <g id="boffinhouse-logo" sketch:type="MSLayerGroup" transform="translate(44.000000, 1761.000000)">
                <g id="symbol" fill="#BBBDBB" sketch:type="MSShapeGroup">
                    <rect id="top" x="0" y="0" width="12.1105691" height="9.79591837"></rect>
                    <path d="M21.9902439,20.5714286 L36.3317073,20.5714286 L36.3317073,12.0816327 L0,12.0816327 L0,20.5714286 L14.3414634,20.5714286 L14.3414634,18.2857143 L21.9902439,18.2857143 L21.9902439,20.5714286 Z" id="middle"></path>
                    <path d="M21.9902439,31.3469388 L36.3317073,31.3469388 L36.3317073,22.8571429 L0,22.8571429 L0,31.3469388 L14.3414634,31.3469388 L14.3414634,29.0612245 L21.9902439,29.0612245 L21.9902439,31.3469388 Z" id="middle-copy" transform="translate(18.165854, 27.102041) scale(1, -1) translate(-18.165854, -27.102041) "></path>
                </g>
                <path d="M49.6533333,17.0318367 C48.2765528,17.0318367 46.9507642,17.3191837 46.1858862,17.8938776 L45.1660488,19.435102 L45.1660488,12.1469388 L40.5767805,12.1469388 L40.5767805,31.3469388 L45.1660488,31.3469388 L45.1660488,29.5444898 L46.0584065,31.0334694 C46.7467967,31.4514286 48.0725854,31.7126531 49.1944065,31.7126531 C52.6873496,31.7126531 55.644878,29.0220408 55.644878,24.0587755 C55.644878,19.9314286 53.3502439,17.0318367 49.6533333,17.0318367 L49.6533333,17.0318367 Z M47.9451057,28.5257143 C46.5683252,28.5257143 45.1660488,27.5853061 45.1660488,24.7902041 L45.1660488,24.1893878 C45.1660488,21.2636735 46.3898537,20.2187755 48.0725854,20.2187755 C49.6788293,20.2187755 50.953626,21.6816327 50.953626,24.2938776 C50.953626,27.1412245 49.7298211,28.5257143 47.9451057,28.5257143 L47.9451057,28.5257143 Z M64.1860163,17.0318367 C59.7242276,17.0318367 56.8686829,19.8791837 56.8686829,24.3722449 C56.8686829,28.8391837 59.7242276,31.7126531 64.1860163,31.7126531 C68.6478049,31.7126531 71.5033496,28.8391837 71.5033496,24.3722449 C71.5033496,19.8791837 68.6478049,17.0318367 64.1860163,17.0318367 L64.1860163,17.0318367 Z M64.1860163,28.5257143 C62.5542764,28.5257143 61.559935,27.1412245 61.559935,24.3722449 C61.559935,21.5771429 62.5542764,20.2187755 64.1860163,20.2187755 C65.8177561,20.2187755 66.8120976,21.5771429 66.8120976,24.3722449 C66.8120976,27.1412245 65.8177561,28.5257143 64.1860163,28.5257143 L64.1860163,28.5257143 Z M78.6677073,16.3526531 C78.795187,15.124898 79.9934959,14.6285714 81.6507317,14.9159184 L81.6507317,11.8595918 C81.1918049,11.7289796 80.6563902,11.6506122 80.1209756,11.6506122 C75.9141463,11.6506122 74.2824065,13.2702041 74.078439,15.882449 C74.0529431,16.3526531 74.0529431,16.9795918 74.0529431,17.397551 L74.0529431,17.5020408 L72.5996748,17.5020408 L72.5996748,20.4277551 L74.0529431,20.4277551 L74.0529431,31.3469388 L78.6422114,31.3469388 L78.6422114,20.4277551 L81.4212683,20.4277551 L81.4212683,17.5020408 L78.6422114,17.5020408 L78.6422114,17.397551 C78.6422114,17.0579592 78.6422114,16.7183673 78.6677073,16.3526531 L78.6677073,16.3526531 Z M87.412813,16.3526531 C87.5402927,15.124898 88.7386016,14.6285714 90.3958374,14.9159184 L90.3958374,11.8595918 C89.9369106,11.7289796 89.401496,11.6506122 88.8660813,11.6506122 C84.659252,11.6506122 83.0275122,13.2702041 82.8235447,15.882449 C82.7980488,16.3526531 82.7980488,16.9795918 82.7980488,17.397551 L82.7980488,17.5020408 L81.3447805,17.5020408 L81.3447805,20.4277551 L82.7980488,20.4277551 L82.7980488,31.3469388 L87.3873171,31.3469388 L87.3873171,20.4277551 L90.166374,20.4277551 L90.166374,17.5020408 L87.3873171,17.5020408 L87.3873171,17.397551 C87.3873171,17.0579592 87.3873171,16.7183673 87.412813,16.3526531 L87.412813,16.3526531 Z M94.9596097,11.7289796 C93.5318374,11.7289796 92.5884878,12.6171429 92.5884878,14.0277551 C92.5884878,15.4383673 93.5318374,16.3265306 94.9596097,16.3265306 C96.3873821,16.3265306 97.3307317,15.4383673 97.3307317,14.0277551 C97.3307317,12.6171429 96.3873821,11.7289796 94.9596097,11.7289796 L94.9596097,11.7289796 Z M97.2542439,31.3469388 L97.2542439,17.397551 L92.6649756,17.397551 L92.6649756,31.3469388 L97.2542439,31.3469388 Z M114.049691,20.8195918 C113.692748,18.3902041 112.035512,17.0318367 109.230959,17.0318367 C107.981659,17.0318367 107.012813,17.3191837 106.171447,17.8416327 L104.947642,19.5657143 L104.947642,17.397551 L100.358374,17.397551 L100.358374,31.3469388 L104.947642,31.3469388 L104.947642,24.7640816 C104.947642,21.6032653 105.941984,20.2187755 107.34426,20.2187755 C108.721041,20.2187755 109.434927,21.002449 109.536911,22.3346939 C109.587902,23.04 109.587902,23.797551 109.587902,24.2416327 L109.587902,31.3469388 L114.177171,31.3469388 L114.177171,23.4579592 C114.177171,22.3346939 114.151675,21.524898 114.049691,20.8195918 L114.049691,20.8195918 Z M134.006634,13.322449 L129.417366,13.322449 L129.417366,20.6889796 L122.380488,20.6889796 L122.380488,13.322449 L117.791219,13.322449 L117.791219,31.3469388 L122.380488,31.3469388 L122.380488,24.3461224 L129.417366,24.3461224 L129.417366,31.3469388 L134.006634,31.3469388 L134.006634,13.322449 Z M143.31265,17.0318367 C138.850862,17.0318367 135.995317,19.8791837 135.995317,24.3722449 C135.995317,28.8391837 138.850862,31.7126531 143.31265,31.7126531 C147.774439,31.7126531 150.629984,28.8391837 150.629984,24.3722449 C150.629984,19.8791837 147.774439,17.0318367 143.31265,17.0318367 L143.31265,17.0318367 Z M143.31265,28.5257143 C141.680911,28.5257143 140.686569,27.1412245 140.686569,24.3722449 C140.686569,21.5771429 141.680911,20.2187755 143.31265,20.2187755 C144.94439,20.2187755 145.938732,21.5771429 145.938732,24.3722449 C145.938732,27.1412245 144.94439,28.5257143 143.31265,28.5257143 L143.31265,28.5257143 Z M166.182504,17.397551 L161.593236,17.397551 L161.593236,25.2865306 C161.593236,27.1412245 160.726374,28.5257143 159.273106,28.5257143 C157.819837,28.5257143 157.207935,27.7420408 157.054959,26.4097959 C156.978472,25.7044898 156.952976,24.9469388 156.952976,24.5028571 L156.952976,17.397551 L152.363707,17.397551 L152.363707,25.5477551 C152.363707,26.6710204 152.389203,27.4808163 152.491187,28.1861224 C152.797138,30.0930612 154.505366,31.7126531 157.309919,31.7126531 C158.559219,31.7126531 159.528065,31.4253061 160.369431,30.9028571 L161.593236,28.9959184 L161.593236,31.3469388 L166.182504,31.3469388 L166.182504,17.397551 Z M174.545171,17.0318367 C170.924748,17.0318367 168.579122,18.7559184 168.579122,21.524898 C168.579122,23.9020408 170.134374,25.1297959 172.734959,25.7567347 C175.157073,26.3314286 176.023935,26.8277551 176.023935,27.7159184 C176.023935,28.4473469 175.386537,28.7869388 174.570667,28.7869388 C173.601821,28.7869388 172.785951,28.0816327 172.530992,27.0106122 L168.018211,27.0106122 C168.375154,30.1453061 170.899252,31.7126531 174.596163,31.7126531 C177.885138,31.7126531 180.613203,30.3281633 180.613203,27.3502041 C180.613203,24.6595918 178.853984,23.562449 176.380878,22.9355102 C173.780293,22.282449 173.16839,21.76 173.16839,20.9763265 C173.16839,20.3755102 173.627317,19.957551 174.264715,19.957551 C175.080585,19.957551 175.539512,20.5061224 175.74348,21.4726531 L180.25626,21.4726531 C179.899317,18.9387755 177.93613,17.0318367 174.545171,17.0318367 Z M195.732293,24.1893878 C195.732293,20.5844898 193.437659,17.0318367 188.899382,17.0318367 C184.361106,17.0318367 181.633041,20.3493878 181.633041,24.4244898 C181.633041,29.3355102 184.743545,31.7126531 188.644423,31.7126531 C192.137366,31.7126531 194.686959,29.9363265 195.477333,26.7755102 L190.964553,26.7755102 C190.786081,27.8465306 189.995707,28.5257143 188.695415,28.5257143 C187.395122,28.5257143 186.40078,27.8726531 186.171317,25.5477551 L195.655805,25.5477551 C195.706797,25.077551 195.732293,24.6073469 195.732293,24.1893878 Z M188.669919,20.2187755 C189.893724,20.2187755 190.684098,21.0285714 190.939057,22.6742857 L186.324293,22.6742857 C186.630244,20.9502041 187.47161,20.2187755 188.669919,20.2187755 Z" id="boffinhouse-text-" fill="#BABDBA" sketch:type="MSShapeGroup"></path>
            </g>
        </g>
    </g>
</svg>