<?xml version="1.0" encoding="UTF-8" standalone="no"?>
<svg width="297px" height="83px" viewBox="0 0 297 83" version="1.1" xmlns="http://www.w3.org/2000/svg" xmlns:xlink="http://www.w3.org/1999/xlink" xmlns:sketch="http://www.bohemiancoding.com/sketch/ns">
    <!-- Generator: Sketch 3.3.2 (12043) - http://www.bohemiancoding.com/sketch -->
    <title>boffinhouse logo + produced by + Line + Path 18 + Path 19</title>
    <desc>Created with Sketch.</desc>
    <defs></defs>
    <g id="startpage" stroke="none" stroke-width="1" fill="none" fill-rule="evenodd" sketch:type="MSPage">
        <g id="Desktop-HD" sketch:type="MSArtboardGroup" transform="translate(-52.000000, -1712.000000)">
            <g id="boffinhouse-logo-+-produced-by-+-Line-+-Path-18-+-Path-19" sketch:type="MSLayerGroup" transform="translate(54.000000, 1714.000000)">
                <g id="boffinhouse-logo" transform="translate(10.748006, 10.768786)" fill="#759198" sketch:type="MSShapeGroup">
                    <g id="symbol">
                        <rect id="top" x="0" y="0" width="16.8624784" height="13.3295977"></rect>
                        <path d="M30.6187109,27.9921552 L50.5874353,27.9921552 L50.5874353,16.4398372 L0,16.4398372 L0,27.9921552 L19.9687245,27.9921552 L19.9687245,24.8819158 L30.6187109,24.8819158 L30.6187109,27.9921552 Z" id="middle"></path>
                        <path d="M30.6187109,42.6547128 L50.5874353,42.6547128 L50.5874353,31.1023947 L0,31.1023947 L0,42.6547128 L19.9687245,42.6547128 L19.9687245,39.5444733 L30.6187109,39.5444733 L30.6187109,42.6547128 Z" id="middle-copy" transform="translate(25.293718, 36.878554) scale(1, -1) translate(-25.293718, -36.878554) "></path>
                    </g>
                    <path d="M69.1361616,23.1757273 C67.2191641,23.1757273 65.3731664,23.5667288 64.3081678,24.3487319 L62.8881696,26.4459219 L62.8881696,16.5287012 L56.4981778,16.5287012 L56.4981778,42.6547128 L62.8881696,42.6547128 L62.8881696,40.2020668 L64.130668,42.2281656 C65.0891668,42.7968951 66.9351644,43.1523511 68.4971624,43.1523511 C73.3606562,43.1523511 77.478651,39.4911549 77.478651,32.737492 C77.478651,27.1212882 74.283655,23.1757273 69.1361616,23.1757273 L69.1361616,23.1757273 Z M66.7576647,38.8157886 C64.8406671,38.8157886 62.8881696,37.5361472 62.8881696,33.7327687 L62.8881696,32.91522 C62.8881696,28.9341135 64.5921674,27.5122897 66.9351644,27.5122897 C69.1716616,27.5122897 70.9466593,29.502843 70.9466593,33.0574024 C70.9466593,36.9318721 69.2426615,38.8157886 66.7576647,38.8157886 L66.7576647,38.8157886 Z M89.3711357,23.1757273 C83.1586437,23.1757273 79.1826488,27.050197 79.1826488,33.1640392 C79.1826488,39.2423357 83.1586437,43.1523511 89.3711357,43.1523511 C95.5836278,43.1523511 99.5596227,39.2423357 99.5596227,33.1640392 C99.5596227,27.050197 95.5836278,23.1757273 89.3711357,23.1757273 L89.3711357,23.1757273 Z M89.3711357,38.8157886 C87.0991387,38.8157886 85.7146404,36.9318721 85.7146404,33.1640392 C85.7146404,29.3606606 87.0991387,27.5122897 89.3711357,27.5122897 C91.6431328,27.5122897 93.0276311,29.3606606 93.0276311,33.1640392 C93.0276311,36.9318721 91.6431328,38.8157886 89.3711357,38.8157886 L89.3711357,38.8157886 Z M109.53511,22.2515418 C109.71261,20.5808989 111.381108,19.9055326 113.688605,20.2965342 L113.688605,16.1376997 C113.049605,15.9599717 112.304106,15.8533349 111.558607,15.8533349 C105.701115,15.8533349 103.429118,18.0571617 103.145118,21.6117211 C103.109618,22.2515418 103.109618,23.1046361 103.109618,23.6733656 L103.109618,23.815548 L101.086121,23.815548 L101.086121,27.7966545 L103.109618,27.7966545 L103.109618,42.6547128 L109.49961,42.6547128 L109.49961,27.7966545 L113.369105,27.7966545 L113.369105,23.815548 L109.49961,23.815548 L109.49961,23.6733656 C109.49961,23.2112729 109.49961,22.7491801 109.53511,22.2515418 L109.53511,22.2515418 Z M121.711594,22.2515418 C121.889094,20.5808989 123.557592,19.9055326 125.865089,20.2965342 L125.865089,16.1376997 C125.22609,15.9599717 124.480591,15.8533349 123.735092,15.8533349 C117.877599,15.8533349 115.605602,18.0571617 115.321603,21.6117211 C115.286103,22.2515418 115.286103,23.1046361 115.286103,23.6733656 L115.286103,23.815548 L113.262605,23.815548 L113.262605,27.7966545 L115.286103,27.7966545 L115.286103,42.6547128 L121.676094,42.6547128 L121.676094,27.7966545 L125.54559,27.7966545 L125.54559,23.815548 L121.676094,23.815548 L121.676094,23.6733656 C121.676094,23.2112729 121.676094,22.7491801 121.711594,22.2515418 L121.711594,22.2515418 Z M132.219581,15.9599717 C130.231583,15.9599717 128.918085,17.1685219 128.918085,19.087984 C128.918085,21.007446 130.231583,22.2159962 132.219581,22.2159962 C134.207578,22.2159962 135.521077,21.007446 135.521077,19.087984 C135.521077,17.1685219 134.207578,15.9599717 132.219581,15.9599717 L132.219581,15.9599717 Z M135.414577,42.6547128 L135.414577,23.6733656 L129.024585,23.6733656 L129.024585,42.6547128 L135.414577,42.6547128 Z M158.800172,28.3298384 C158.303173,25.0240981 155.995676,23.1757273 152.090681,23.1757273 C150.351183,23.1757273 149.002184,23.5667288 147.830686,24.2776407 L146.126688,26.6236499 L146.126688,23.6733656 L139.736696,23.6733656 L139.736696,42.6547128 L146.126688,42.6547128 L146.126688,33.6972231 C146.126688,29.3962062 147.511186,27.5122897 149.463684,27.5122897 C151.380681,27.5122897 152.37468,28.5786575 152.51668,30.3914828 C152.58768,31.3512139 152.58768,32.3820361 152.58768,32.9863112 L152.58768,42.6547128 L158.977672,42.6547128 L158.977672,31.9199434 C158.977672,30.3914828 158.942172,29.2895694 158.800172,28.3298384 L158.800172,28.3298384 Z M186.587761,18.1282529 L180.19777,18.1282529 L180.19777,28.1521104 L170.399782,28.1521104 L170.399782,18.1282529 L164.00979,18.1282529 L164.00979,42.6547128 L170.399782,42.6547128 L170.399782,33.1284936 L180.19777,33.1284936 L180.19777,42.6547128 L186.587761,42.6547128 L186.587761,18.1282529 Z M199.545245,23.1757273 C193.332753,23.1757273 189.356758,27.050197 189.356758,33.1640392 C189.356758,39.2423357 193.332753,43.1523511 199.545245,43.1523511 C205.757737,43.1523511 209.733732,39.2423357 209.733732,33.1640392 C209.733732,27.050197 205.757737,23.1757273 199.545245,23.1757273 L199.545245,23.1757273 Z M199.545245,38.8157886 C197.273248,38.8157886 195.88875,36.9318721 195.88875,33.1640392 C195.88875,29.3606606 197.273248,27.5122897 199.545245,27.5122897 C201.817242,27.5122897 203.20174,29.3606606 203.20174,33.1640392 C203.20174,36.9318721 201.817242,38.8157886 199.545245,38.8157886 L199.545245,38.8157886 Z M231.388704,23.6733656 L224.998712,23.6733656 L224.998712,34.408135 C224.998712,36.9318721 223.791714,38.8157886 221.768216,38.8157886 C219.744719,38.8157886 218.89272,37.7494208 218.67972,35.9365955 C218.573221,34.9768645 218.537721,33.9460422 218.537721,33.3417671 L218.537721,23.6733656 L212.147729,23.6733656 L212.147729,34.7635909 C212.147729,36.2920514 212.183229,37.3939648 212.325229,38.3536959 C212.751228,40.9485242 215.129725,43.1523511 219.03472,43.1523511 C220.774218,43.1523511 222.123216,42.7613495 223.294715,42.0504377 L224.998712,39.4556093 L224.998712,42.6547128 L231.388704,42.6547128 L231.388704,23.6733656 Z M243.032689,23.1757273 C237.991696,23.1757273 234.7257,25.5217365 234.7257,29.2895694 C234.7257,32.5242185 236.891197,34.1948614 240.512193,35.0479556 C243.884688,35.8299587 245.091687,36.505325 245.091687,37.7138752 C245.091687,38.7091518 244.204188,39.1712445 243.068189,39.1712445 C241.719191,39.1712445 240.583192,38.2115135 240.228193,36.7541442 L233.944701,36.7541442 C234.4417,41.0196154 237.956196,43.1523511 243.103689,43.1523511 C247.683183,43.1523511 251.481678,41.2684346 251.481678,37.2162369 C251.481678,33.5550407 249.032182,32.0621258 245.588686,31.2090315 C241.967691,30.3203916 241.115692,29.6094798 241.115692,28.5431119 C241.115692,27.7255633 241.754691,27.1568338 242.64219,27.1568338 C243.778188,27.1568338 244.417188,27.9032913 244.701187,29.2184782 L250.984679,29.2184782 C250.48768,25.7705556 247.754183,23.1757273 243.032689,23.1757273 Z M272.533152,32.91522 C272.533152,28.009928 269.338156,23.1757273 263.019164,23.1757273 C256.700172,23.1757273 252.901677,27.6900177 252.901677,33.2351304 C252.901677,39.917702 257.232671,43.1523511 262.664164,43.1523511 C267.527658,43.1523511 271.077653,40.7352507 272.178152,36.4342338 L265.89466,36.4342338 C265.64616,37.8916032 264.545662,38.8157886 262.735164,38.8157886 C260.924666,38.8157886 259.540168,37.9271488 259.220669,34.7635909 L272.426652,34.7635909 C272.497652,34.1237702 272.533152,33.4839495 272.533152,32.91522 Z M262.699664,27.5122897 C264.403662,27.5122897 265.504161,28.6142031 265.85916,30.8535756 L259.433668,30.8535756 C259.859668,28.5075664 261.031166,27.5122897 262.699664,27.5122897 Z" id="boffinhouse-text-"></path>
                </g>
                <g id="Line-+-Path-18-+-Path-19" stroke="#759198" stroke-width="4" sketch:type="MSShapeGroup">
                    <path d="M0.719312602,0.393003684 L292.526751,0.393003684" id="Line" stroke-linecap="square"></path>
                    <path d="M293,0.786007368 L293,75.6806152 L119.888235,75.6806152" id="Path-18"></path>
                    <path d="M0.252883337,0.384154776 L0.252883337,75.2787626 L6.25933089,75.2670616" id="Path-19"></path>
                </g>
                <path d="M16.7108134,67.6480664 C15.8023732,67.6480664 14.9275789,67.833119 14.42289,68.2032243 L13.7499713,69.1957793 L13.7499713,67.8835879 L10.7218373,67.8835879 L10.7218373,80.1643535 L13.7499713,80.1643535 L13.7499713,75.7062673 L14.3387751,76.6651764 C14.7929952,76.9343439 15.6677895,77.1025736 16.408,77.1025736 C18.7127464,77.1025736 20.6642105,75.369808 20.6642105,72.1734444 C20.6642105,69.5154157 19.1501435,67.6480664 16.7108134,67.6480664 L16.7108134,67.6480664 Z M15.5836746,75.0501716 C14.6752344,75.0501716 13.7499713,74.4445448 13.7499713,72.6444874 L13.7499713,72.2575592 C13.7499713,70.373387 14.5574737,69.7004683 15.6677895,69.7004683 C16.7276364,69.7004683 17.5687847,70.6425544 17.5687847,72.3248511 C17.5687847,74.1585544 16.7612823,75.0501716 15.5836746,75.0501716 L15.5836746,75.0501716 Z M27.4102201,67.6480664 C26.8382392,67.6480664 26.1316746,67.9004109 25.6438086,68.4387458 L25.0045359,69.7004683 L25.0045359,67.8835879 L21.9764019,67.8835879 L21.9764019,76.867052 L25.0045359,76.867052 L25.0045359,73.5697506 C25.0045359,70.861253 25.8288612,70.0201047 28.0999617,70.1715114 L28.0999617,67.6985353 C27.8812632,67.6648893 27.6962105,67.6480664 27.4102201,67.6480664 L27.4102201,67.6480664 Z M33.3655502,67.6480664 C30.4215311,67.6480664 28.5373589,69.4817697 28.5373589,72.37532 C28.5373589,75.2520472 30.4215311,77.1025736 33.3655502,77.1025736 C36.3095694,77.1025736 38.1937416,75.2520472 38.1937416,72.37532 C38.1937416,69.4817697 36.3095694,67.6480664 33.3655502,67.6480664 L33.3655502,67.6480664 Z M33.3655502,75.0501716 C32.2888804,75.0501716 31.6327847,74.1585544 31.6327847,72.37532 C31.6327847,70.5752625 32.2888804,69.7004683 33.3655502,69.7004683 C34.4422201,69.7004683 35.0983158,70.5752625 35.0983158,72.37532 C35.0983158,74.1585544 34.4422201,75.0501716 33.3655502,75.0501716 L33.3655502,75.0501716 Z M48.9436172,64.5021716 L45.9154833,64.5021716 L45.9154833,69.0443726 L45.3266794,68.0854635 C44.8724593,67.816296 43.9976651,67.6480664 43.2574545,67.6480664 C40.9527081,67.6480664 39.001244,69.3808319 39.001244,72.5771956 C39.001244,75.2352243 40.515311,77.1025736 42.9546411,77.1025736 C43.8630813,77.1025736 44.7378756,76.9175209 45.2425646,76.5474157 L45.9154833,75.5548606 L45.9154833,76.867052 L48.9436172,76.867052 L48.9436172,64.5021716 Z M43.9976651,75.0501716 C42.9378182,75.0501716 42.0966699,74.1080855 42.0966699,72.4257889 C42.0966699,70.5920855 42.9041722,69.7004683 44.0817799,69.7004683 C44.9902201,69.7004683 45.9154833,70.3060951 45.9154833,72.1061525 L45.9154833,72.4930807 C45.9154833,74.377253 45.1079809,75.0501716 43.9976651,75.0501716 L43.9976651,75.0501716 Z M59.7103158,67.8835879 L56.6821818,67.8835879 L56.6821818,72.9641238 C56.6821818,74.1585544 56.110201,75.0501716 55.1512919,75.0501716 C54.1923828,75.0501716 53.7886316,74.5454826 53.6876938,73.6875114 C53.6372249,73.2332913 53.6204019,72.7454252 53.6204019,72.4594348 L53.6204019,67.8835879 L50.5922679,67.8835879 L50.5922679,73.1323535 C50.5922679,73.855741 50.6090909,74.377253 50.6763828,74.8314731 C50.8782584,76.0595496 52.0053971,77.1025736 53.8559234,77.1025736 C54.6802488,77.1025736 55.3195215,76.9175209 55.8746794,76.5810616 L56.6821818,75.352985 L56.6821818,76.867052 L59.7103158,76.867052 L59.7103158,67.8835879 Z M65.7497608,67.6480664 C63.108555,67.6480664 61.0225072,69.3808319 61.0225072,72.4762578 C61.0225072,75.4370999 62.9739713,77.1025736 65.5478852,77.1025736 C67.9872153,77.1025736 69.7872727,75.89132 70.1237321,73.5697506 L67.146067,73.5697506 C66.9778373,74.5454826 66.4058565,75.0501716 65.7161148,75.0501716 C64.6899139,75.0501716 64.117933,74.2090233 64.117933,72.2912051 C64.117933,70.5584396 64.6730909,69.7004683 65.6824689,69.7004683 C66.4395024,69.7004683 67.0283062,70.1378654 67.16289,71.3154731 L70.0900861,71.3154731 C70.0059713,69.2967171 68.3909665,67.6480664 65.7497608,67.6480664 L65.7497608,67.6480664 Z M80.200689,72.2575592 C80.200689,69.9359898 78.686622,67.6480664 75.692134,67.6480664 C72.6976459,67.6480664 70.8975885,69.7845831 70.8975885,72.4089659 C70.8975885,75.5716836 72.9499904,77.1025736 75.5239043,77.1025736 C77.8286507,77.1025736 79.5109474,75.9586118 80.0324593,73.9230329 L77.0547943,73.9230329 C76.9370335,74.6127745 76.4155215,75.0501716 75.5575502,75.0501716 C74.6995789,75.0501716 74.0434833,74.6295975 73.8920766,73.1323535 L80.1502201,73.1323535 C80.183866,72.8295401 80.200689,72.5267267 80.200689,72.2575592 L80.200689,72.2575592 Z M75.5407273,69.7004683 C76.3482297,69.7004683 76.8697416,70.2219803 77.0379713,71.2818271 L73.9930144,71.2818271 C74.19489,70.1715114 74.7500478,69.7004683 75.5407273,69.7004683 L75.5407273,69.7004683 Z M90.9505646,64.5021716 L87.9224306,64.5021716 L87.9224306,69.0443726 L87.3336268,68.0854635 C86.8794067,67.816296 86.0046124,67.6480664 85.2644019,67.6480664 C82.9596555,67.6480664 81.0081914,69.3808319 81.0081914,72.5771956 C81.0081914,75.2352243 82.5222584,77.1025736 84.9615885,77.1025736 C85.8700287,77.1025736 86.744823,76.9175209 87.249512,76.5474157 L87.9224306,75.5548606 L87.9224306,76.867052 L90.9505646,76.867052 L90.9505646,64.5021716 Z M86.0046124,75.0501716 C84.9447656,75.0501716 84.1036172,74.1080855 84.1036172,72.4257889 C84.1036172,70.5920855 84.9111196,69.7004683 86.0887273,69.7004683 C86.9971675,69.7004683 87.9224306,70.3060951 87.9224306,72.1061525 L87.9224306,72.4930807 C87.9224306,74.377253 87.1149282,75.0501716 86.0046124,75.0501716 L86.0046124,75.0501716 Z M101.717263,67.6480664 C100.808823,67.6480664 99.9340287,67.833119 99.4293397,68.2032243 L98.7564211,69.1957793 L98.7564211,64.5021716 L95.7282871,64.5021716 L95.7282871,76.867052 L98.7564211,76.867052 L98.7564211,75.7062673 L99.3452249,76.6651764 C99.799445,76.9343439 100.674239,77.1025736 101.41445,77.1025736 C103.719196,77.1025736 105.67066,75.369808 105.67066,72.1734444 C105.67066,69.5154157 104.156593,67.6480664 101.717263,67.6480664 L101.717263,67.6480664 Z M100.590124,75.0501716 C99.6816842,75.0501716 98.7564211,74.4445448 98.7564211,72.6444874 L98.7564211,72.2575592 C98.7564211,70.373387 99.5639234,69.7004683 100.674239,69.7004683 C101.734086,69.7004683 102.575234,70.6425544 102.575234,72.3248511 C102.575234,74.1585544 101.767732,75.0501716 100.590124,75.0501716 L100.590124,75.0501716 Z M115.999962,67.8835879 L112.685837,67.8835879 L110.852134,74.4613678 L109.001608,67.8835879 L105.637014,67.8835879 L109.35489,77.2708032 L109.237129,77.5231477 C108.951139,78.1624204 108.463273,78.397942 107.756708,78.397942 C107.453895,78.397942 107.184727,78.397942 106.932383,78.364296 L106.932383,80.3157602 C107.36978,80.383052 107.723062,80.399875 108.210928,80.399875 C110.347445,80.399875 111.323177,79.7101334 112.450316,76.867052 L115.999962,67.8835879 Z" id="produced-by" fill="#759198" sketch:type="MSShapeGroup"></path>
            </g>
        </g>
    </g>
</svg>