<?xml version="1.0" encoding="UTF-8" standalone="no"?>
<svg width="163px" height="17px" viewBox="0 0 163 17" version="1.1" xmlns="http://www.w3.org/2000/svg" xmlns:xlink="http://www.w3.org/1999/xlink" xmlns:sketch="http://www.bohemiancoding.com/sketch/ns">
    <!-- Generator: Sketch 3.3.2 (12043) - http://www.bohemiancoding.com/sketch -->
    <title>RawBlock by boffinho</title>
    <desc>Created with Sketch.</desc>
    <defs></defs>
    <g id="Page-1" stroke="none" stroke-width="1" fill="none" fill-rule="evenodd" sketch:type="MSPage">
        <g id="Desktop" sketch:type="MSArtboardGroup" transform="translate(-21.000000, -17.000000)" fill="#333333">
            <path d="M31.124,27.976 C30.944,26.482 30.476,25.528 29.18,25.06 C30.836,24.574 31.682,23.53 31.682,21.964 C31.682,19.768 30.116,18.886 28.316,18.67 C27.65,18.598 27.146,18.58 26.372,18.58 L21.44,18.58 L21.44,31 L24.68,31 L24.68,26.284 L25.4,26.284 C25.76,26.284 26.066,26.284 26.426,26.302 C27.254,26.356 27.794,27.148 27.956,28.516 C28.064,29.398 28.244,30.118 28.532,31 L32.06,31 C31.574,30.262 31.286,29.38 31.124,27.976 L31.124,27.976 Z M24.68,23.944 L24.68,21.1 L25.94,21.1 C26.282,21.1 26.57,21.1 26.804,21.118 C27.632,21.19 28.298,21.478 28.298,22.522 C28.298,23.566 27.542,23.854 26.714,23.926 C26.48,23.944 26.192,23.944 25.85,23.944 L24.68,23.944 Z M38.882,31 L42.05,31 C41.906,29.938 41.87,29.29 41.87,28.57 L41.87,25.87 C41.87,25.276 41.852,24.718 41.816,24.232 C41.672,22.486 40.628,21.136 37.586,21.136 C35.156,21.136 33.158,22.414 33.14,24.664 L36.2,24.646 C36.254,23.818 36.686,23.332 37.442,23.332 C38.144,23.332 38.54,23.764 38.594,24.25 C38.63,24.556 38.63,24.754 38.63,24.952 L38.63,25.096 L38.018,25.096 C34.76,25.096 32.816,26.356 32.816,28.408 C32.816,30.262 34.31,31.252 35.894,31.252 C36.776,31.252 37.586,31.036 38.27,30.604 L38.666,29.596 L38.882,31 Z M37.226,29.056 C36.578,29.056 36.128,28.732 36.128,28.156 C36.128,27.202 37.172,26.824 38.63,26.932 L38.63,27.562 C38.63,28.57 37.874,29.056 37.226,29.056 L37.226,29.056 Z M58.61,21.388 L55.118,21.388 L53.894,28.282 L52.67,21.46 L48.818,21.46 L47.666,28.264 L46.406,21.388 L42.842,21.388 L45.884,31 L49.502,31 L50.726,24.52 L51.95,31 L55.568,31 L58.61,21.388 Z M67.97,24.25 C69.194,23.818 69.788,22.954 69.788,21.82 C69.788,20.2 68.636,18.904 66.584,18.652 C65.954,18.58 65.666,18.58 65,18.58 L59.906,18.58 L59.906,31 L64.856,31 C65.648,31 66.062,31 66.692,30.928 C68.366,30.73 70.256,29.578 70.256,27.256 C70.256,25.744 69.536,24.7 67.97,24.25 L67.97,24.25 Z M63.146,21.1 L64.604,21.1 C64.892,21.1 65.18,21.118 65.414,21.154 C66.026,21.244 66.404,21.586 66.404,22.288 C66.404,23.026 65.99,23.332 65.396,23.422 C65.162,23.458 64.892,23.476 64.604,23.476 L63.146,23.476 L63.146,21.1 Z M65.702,28.462 C65.468,28.48 65.18,28.48 64.892,28.48 L63.146,28.48 L63.146,25.816 L64.802,25.816 C65.09,25.816 65.378,25.816 65.612,25.834 C66.278,25.888 66.872,26.32 66.872,27.148 C66.872,27.958 66.278,28.426 65.702,28.462 L65.702,28.462 Z M74.864,17.77 L71.624,17.77 L71.624,27.598 C71.624,28.318 71.624,28.804 71.66,29.308 C71.732,30.586 72.578,31.18 74.072,31.18 C74.792,31.18 75.368,31.144 75.962,31.09 L75.962,28.894 C75.116,28.93 74.954,28.804 74.9,28.426 C74.864,28.192 74.864,27.994 74.864,27.544 L74.864,17.77 Z M81.812,21.136 C78.662,21.136 76.646,23.098 76.646,26.194 C76.646,29.272 78.662,31.252 81.812,31.252 C84.962,31.252 86.978,29.272 86.978,26.194 C86.978,23.098 84.962,21.136 81.812,21.136 L81.812,21.136 Z M81.812,29.056 C80.66,29.056 79.958,28.102 79.958,26.194 C79.958,24.268 80.66,23.332 81.812,23.332 C82.964,23.332 83.666,24.268 83.666,26.194 C83.666,28.102 82.964,29.056 81.812,29.056 L81.812,29.056 Z M92.9,21.136 C90.074,21.136 87.842,22.99 87.842,26.302 C87.842,29.47 89.93,31.252 92.684,31.252 C95.294,31.252 97.22,29.956 97.58,27.472 L94.394,27.472 C94.214,28.516 93.602,29.056 92.864,29.056 C91.766,29.056 91.154,28.156 91.154,26.104 C91.154,24.25 91.748,23.332 92.828,23.332 C93.638,23.332 94.268,23.8 94.412,25.06 L97.544,25.06 C97.454,22.9 95.726,21.136 92.9,21.136 L92.9,21.136 Z M102.872,27.436 L105.446,31 L109.424,31 L105.302,25.798 L109.37,21.388 L105.572,21.388 L102.188,25.42 L102.188,17.77 L98.948,17.77 L98.948,31 L102.188,31 L102.188,28.192 L102.872,27.436 Z M116.04,25.027 C115.369,25.027 114.797,25.225 114.39,25.621 L114.005,26.259 L114.005,22.915 L113.323,22.915 L113.323,31 L114.005,31 L114.005,30.01 L114.368,30.637 C114.731,30.978 115.292,31.154 115.864,31.154 C117.338,31.154 118.636,30.131 118.636,28.019 C118.636,26.292 117.668,25.027 116.04,25.027 L116.04,25.027 Z M115.864,30.615 C115.006,30.615 114.005,30.054 114.005,28.393 L114.005,27.953 C114.005,26.193 114.907,25.577 115.941,25.577 C117.217,25.577 117.888,26.71 117.888,28.107 C117.888,29.68 117.03,30.615 115.864,30.615 L115.864,30.615 Z M124.301,25.181 L123.553,25.181 L121.683,30.494 L119.802,25.181 L119.032,25.181 L121.331,31.22 L121.21,31.528 C120.836,32.463 120.44,32.738 119.912,32.738 C119.791,32.738 119.681,32.738 119.538,32.716 L119.538,33.277 C119.67,33.31 119.791,33.31 119.989,33.31 C120.814,33.31 121.375,32.848 121.969,31.308 L124.301,25.181 Z M130.142,25.027 C129.471,25.027 128.899,25.225 128.492,25.621 L128.107,26.259 L128.107,22.915 L127.425,22.915 L127.425,31 L128.107,31 L128.107,30.01 L128.47,30.637 C128.833,30.978 129.394,31.154 129.966,31.154 C131.44,31.154 132.738,30.131 132.738,28.019 C132.738,26.292 131.77,25.027 130.142,25.027 L130.142,25.027 Z M129.966,30.615 C129.108,30.615 128.107,30.054 128.107,28.393 L128.107,27.953 C128.107,26.193 129.009,25.577 130.043,25.577 C131.319,25.577 131.99,26.71 131.99,28.107 C131.99,29.68 131.132,30.615 129.966,30.615 L129.966,30.615 Z M136.225,25.027 C134.377,25.027 133.398,26.38 133.398,28.096 C133.398,29.801 134.377,31.154 136.225,31.154 C138.073,31.154 139.052,29.801 139.052,28.096 C139.052,26.38 138.073,25.027 136.225,25.027 L136.225,25.027 Z M136.225,30.615 C135.015,30.615 134.146,29.68 134.146,28.096 C134.146,26.512 135.015,25.577 136.225,25.577 C137.435,25.577 138.304,26.512 138.304,28.096 C138.304,29.68 137.435,30.615 136.225,30.615 L136.225,30.615 Z M140.966,23.949 C141.032,23.432 141.472,23.179 142.242,23.333 L142.242,22.761 C142.044,22.728 141.857,22.706 141.626,22.706 C140.911,22.706 140.372,23.124 140.284,23.927 C140.262,24.136 140.262,24.378 140.262,24.576 L140.262,25.225 L139.635,25.225 L139.635,25.775 L140.262,25.775 L140.262,31 L140.944,31 L140.944,25.775 L142.132,25.775 L142.132,25.225 L140.944,25.225 L140.944,24.521 C140.944,24.356 140.944,24.136 140.966,23.949 L140.966,23.949 Z M146.719,25.225 L143.892,25.225 L143.892,24.895 C143.892,24.73 143.892,24.51 143.914,24.323 C144.002,23.608 144.574,23.19 146.037,23.333 L146.037,22.761 C145.839,22.728 145.663,22.706 145.432,22.706 C144.057,22.706 143.342,23.311 143.232,24.29 C143.21,24.499 143.21,24.752 143.21,24.95 L143.21,25.225 L142.583,25.225 L142.583,25.775 L143.21,25.775 L143.21,31 L143.892,31 L143.892,25.775 L146.037,25.775 L146.037,31 L146.719,31 L146.719,25.225 Z M153.033,26.765 C152.923,25.698 152.219,25.027 150.987,25.027 C150.338,25.027 149.821,25.203 149.348,25.676 L149.04,26.303 L149.04,25.181 L148.358,25.181 L148.358,31 L149.04,31 L149.04,28.107 C149.04,26.292 149.887,25.588 150.855,25.588 C151.834,25.588 152.274,26.149 152.351,26.941 C152.373,27.238 152.373,27.491 152.373,27.821 L152.373,31 L153.055,31 L153.055,27.744 C153.055,27.271 153.055,27.062 153.033,26.765 L153.033,26.765 Z M159.292,26.765 C159.182,25.698 158.478,25.027 157.246,25.027 C156.597,25.027 156.08,25.203 155.607,25.676 L155.299,26.303 L155.299,22.86 L154.617,22.86 L154.617,31 L155.299,31 L155.299,28.107 C155.299,26.292 156.146,25.599 157.114,25.588 C158.093,25.577 158.533,26.149 158.61,26.941 C158.632,27.238 158.632,27.491 158.632,27.821 L158.632,31 L159.314,31 L159.314,27.744 C159.314,27.271 159.314,27.062 159.292,26.765 L159.292,26.765 Z M163.23,25.027 C161.382,25.027 160.403,26.38 160.403,28.096 C160.403,29.801 161.382,31.154 163.23,31.154 C165.078,31.154 166.057,29.801 166.057,28.096 C166.057,26.38 165.078,25.027 163.23,25.027 L163.23,25.027 Z M163.23,30.615 C162.02,30.615 161.151,29.68 161.151,28.096 C161.151,26.512 162.02,25.577 163.23,25.577 C164.44,25.577 165.309,26.512 165.309,28.096 C165.309,29.68 164.44,30.615 163.23,30.615 L163.23,30.615 Z M171.799,25.181 L171.117,25.181 L171.117,28.074 C171.117,29.9 170.292,30.604 169.324,30.604 C168.422,30.604 167.916,30.065 167.828,29.295 C167.795,28.998 167.784,28.701 167.784,28.426 L167.784,25.181 L167.102,25.181 L167.102,28.58 C167.102,29.053 167.113,29.262 167.146,29.559 C167.278,30.483 167.982,31.154 169.17,31.154 C169.808,31.154 170.336,30.978 170.798,30.527 L171.117,29.878 L171.117,31 L171.799,31 L171.799,25.181 Z M175.077,25.027 C173.933,25.027 173.141,25.687 173.141,26.688 C173.141,27.689 173.966,28.096 174.967,28.36 C176.1,28.635 176.518,28.954 176.518,29.603 C176.518,30.274 175.913,30.615 175.176,30.615 C174.395,30.615 173.768,30.274 173.603,29.284 L172.899,29.284 C173.064,30.604 173.977,31.154 175.132,31.154 C176.331,31.154 177.211,30.582 177.211,29.548 C177.211,28.569 176.573,28.085 175.231,27.755 C174.395,27.546 173.845,27.282 173.845,26.611 C173.845,25.973 174.318,25.577 175.022,25.577 C175.803,25.577 176.276,26.006 176.441,26.809 L177.156,26.809 C177.024,25.786 176.342,25.027 175.077,25.027 L175.077,25.027 Z M183.074,27.931 C183.074,26.325 182.227,25.027 180.599,25.027 C179.07,25.027 177.904,26.226 177.904,28.096 C177.904,30.142 179.037,31.154 180.489,31.154 C181.655,31.154 182.722,30.516 182.997,29.163 L182.282,29.163 C182.073,30.12 181.347,30.615 180.533,30.615 C179.587,30.615 178.718,30.01 178.641,28.294 L183.052,28.294 C183.074,28.118 183.074,28.008 183.074,27.931 L183.074,27.931 Z M180.577,25.577 C181.556,25.577 182.304,26.259 182.381,27.755 L178.641,27.755 C178.74,26.303 179.62,25.577 180.577,25.577 L180.577,25.577 Z" id="RawBlock-by-boffinho" sketch:type="MSShapeGroup"></path>
        </g>
    </g>
</svg>